<svg id="svg" version="1.1" xmlns="http://www.w3.org/2000/svg" xmlns:xlink="http://www.w3.org/1999/xlink" width="400" height="266.6666666666667" viewBox="0, 0, 400,266.6666666666667"><g id="svgg"><path id="path0" d="M194.885 53.593 C 126.457 58.272,95.119 141.425,143.570 189.754 C 190.029 236.096,269.301 209.818,279.061 144.840 C 286.540 95.043,245.133 50.158,194.885 53.593 " stroke="none" fill="#b4342c" fill-rule="evenodd"></path><path id="path1" d="M0.000 133.333 L 0.000 266.667 200.000 266.667 L 400.000 266.667 400.000 133.333 L 400.000 0.000 200.000 0.000 L 0.000 0.000 0.000 133.333 M209.589 54.025 C 268.027 60.766,299.339 128.280,266.716 177.200 C 232.885 227.930,157.266 224.190,129.236 170.400 C 99.560 113.452,145.682 46.653,209.589 54.025 " stroke="none" fill="#fcfbfb" fill-rule="evenodd"></path></g></svg>